#!OML:ASF F:\VICON\USERDATA\INSTALL\rory3\rory3.ASF
:FULLY-SPECIFIED
:DEGREES
555
root 9.97811 17.202 20.1552 5.12562 -1.00813 -0.106104
lowerback 5.00017 6.40594 -2.14335
upperback 1.11807 8.43703 0.99038
thorax -2.08412 4.222 1.60632
lowerneck -7.52083 -7.42722 -17.4575
upperneck 13.1806 -10.1012 15.3822
head 6.93543 -4.74588 6.99828
rclavicle 1.16388e-013 9.93923e-015
rhumerus -25.3923 -15.062 -71.7072
rradius 37.7457
rwrist -6.981
rhand -10.4887 23.0148
rfingers 7.12502
rthumb 15.513 -6.38291
lclavicle 1.16388e-013 9.93923e-015
lhumerus -80.9459 43.8765 10.3533
lradius 20.3561
lwrist -10.4883
lhand -8.82586 397.785
lfingers 7.12502
lthumb 17.1141 67.0513
rfemur -1.06096 -1.69079 23.0329
rtibia 46.6657
rfoot 14.0566 21.9165
rtoes 22.4029
lfemur -31.3487 -1.29896 -25.8686
ltibia 40.5909
lfoot -10.1869 -6.38818
ltoes 12.708
556
root 9.99314 17.2098 20.3014 4.98851 -0.883691 0.198152
lowerback 4.9117 6.28643 -2.20821
upperback 1.091 8.27205 0.786777
thorax -2.03403 4.13937 1.45766
lowerneck -8.86541 -7.71293 -16.8462
upperneck 14.8053 -10.2942 14.0023
head 7.62063 -4.84497 6.37711
rclavicle 2.18663e-015 1.03368e-014
rhumerus -25.8855 -15.94 -72.073
rradius 35.8244
rwrist -5.23465
rhand -9.66559 23.1382
rfingers 7.12502
rthumb 16.3057 -6.19629
lclavicle 2.18663e-015 1.03368e-014
lhumerus -79.8829 43.9907 12.5193
lradius 20.3824
lwrist -9.81042
lhand -8.38244 397.151
lfingers 7.12502
lthumb 17.5408 66.3792
rfemur -2.05876 -2.00341 22.1278
rtibia 48.8464
rfoot 15.179 22.0106
rtoes 20.1532
lfemur -30.5732 -0.807053 -26.4434
ltibia 40.5378
lfoot -10.7968 -6.79732
ltoes 12.3596
557
root 9.99857 17.2147 20.4483 4.8149 -0.705928 0.674856
lowerback 4.73836 6.1861 -2.56408
upperback 1.19003 8.12154 0.592378
thorax -1.84962 4.06344 1.49134
lowerneck -11.0149 -8.27554 -16.1232
upperneck 16.8912 -10.715 12.2361
head 8.62535 -5.06099 5.54751
rclavicle -4.86525e-014 -7.95139e-016
rhumerus -26.0958 -16.8253 -72.3234
rradius 33.7831
rwrist -3.53793
rhand -8.82875 23.1292
rfingers 7.12502
rthumb 17.1113 -6.13725
lclavicle -4.86525e-014 -7.95139e-016
lhumerus -78.1824 44.0489 15.4943
lradius 20.4252
lwrist -8.69451
lhand -8.25988 396.191
lfingers 7.12502
lthumb 17.6588 65.4091
rfemur -3.06413 -2.27619 21.1446
rtibia 51.0983
rfoot 15.8267 21.5327
rtoes 19.5174
lfemur -29.7289 -0.439234 -27.1089
ltibia 40.375
lfoot -11.3278 -7.33356
ltoes 14.6043
558
root 10.0011 17.2215 20.594 4.63692 -0.466576 1.20124
lowerback 4.66387 6.09033 -2.98459
upperback 1.28378 7.97311 0.395508
thorax -1.73311 3.98853 1.54467
lowerneck -11.8263 -8.48325 -16.0604
upperneck 17.6522 -10.8281 11.6303
head 9.01024 -5.13544 5.29164
rclavicle -8.4732e-014 3.97569e-015
rhumerus -26.2766 -17.899 -72.4353
rradius 31.8632
rwrist -1.83812
rhand -8.27152 23.3336
rfingers 7.12502
rthumb 17.6476 -5.88547
lclavicle -8.4732e-014 3.97569e-015
lhumerus -76.9631 44.438 17.5423
lradius 20.2911
lwrist -8.75561
lhand -7.72096 395.3
lfingers 7.12502
lthumb 18.1773 64.4704
rfemur -4.14245 -2.60749 20.1699
rtibia 53.3804
rfoot 15.3562 21.2009
rtoes 18.2102
lfemur -28.8682 -0.315895 -27.7531
ltibia 40.1644
lfoot -11.7557 -7.72063
ltoes 15.0104
559
root 10.0152 17.2233 20.7343 4.433 -0.18445 1.56337
lowerback 4.88566 5.9495 -3.08311
upperback 1.19086 7.76829 0.21123
thorax -1.92876 3.88891 1.39588
lowerneck -11.5801 -8.22932 -16.1647
upperneck 17.8172 -10.52 11.7129
head 8.98453 -5.00038 5.39465
rclavicle -2.13694e-015 -3.97569e-015
rhumerus -26.8289 -19.0175 -72.3972
rradius 30.0534
rwrist -0.0482238
rhand -7.76932 23.414
rfingers 7.12502
rthumb 18.1308 -5.76096
lclavicle -2.13694e-015 -3.97569e-015
lhumerus -75.4803 44.4579 20.0819
lradius 20.4084
lwrist -8.47825
lhand -7.84756 395.431
lfingers 7.12502
lthumb 18.0555 64.6128
rfemur -5.16313 -3.18051 19.2486
rtibia 55.6388
rfoot 14.2068 21.1679
rtoes 17.1061
lfemur -27.9402 -0.424693 -28.224
ltibia 39.9624
lfoot -12.1807 -7.94081
ltoes 15.2838
560
root 10.027 17.2193 20.8664 4.22016 0.182499 1.82049
lowerback 5.2019 5.76567 -3.18296
upperback 1.03546 7.50323 0.144815
thorax -2.25526 3.76163 1.35902
lowerneck -11.0547 -7.68975 -16.5346
upperneck 17.8424 -9.90303 12.3145
head 8.85232 -4.70223 5.77748
rclavicle -3.45388e-014 -7.55382e-015
rhumerus -27.4246 -20.0195 -72.1625
rradius 28.1572
rwrist 1.58507
rhand -7.26051 23.2819
rfingers 7.12502
rthumb 18.6203 -5.8469
lclavicle -3.45388e-014 -7.55382e-015
lhumerus -74.459 44.585 22.1142
lradius 20.5639
lwrist -8.49793
lhand -8.22798 395.435
lfingers 7.12502
lthumb 17.6895 64.6499
rfemur -6.08951 -3.84212 18.458
rtibia 57.8412
rfoot 12.5539 20.9815
rtoes 17.2255
lfemur -27.0353 -0.545444 -28.5685
ltibia 39.7736
lfoot -12.6621 -8.21542
ltoes 15.0717
561
root 10.0257 17.2218 20.9999 3.98485 0.586196 1.89882
lowerback 5.34931 5.56855 -3.33136
upperback 0.996489 7.22838 0.223034
thorax -2.39189 3.62784 1.52424
lowerneck -10.2251 -7.16782 -17.2699
upperneck 17.2861 -9.31717 13.2604
head 8.50248 -4.4224 6.3319
rclavicle -8.87574e-014 1.74931e-014
rhumerus -27.8855 -21.3142 -71.7565
rradius 26.3965
rwrist 3.28588
rhand -7.20494 23.7341
rfingers 7.12502
rthumb 18.6737 -5.38954
lclavicle -8.87574e-014 1.74931e-014
lhumerus -74.2504 45.3138 22.6923
lradius 20.2475
lwrist -9.89802
lhand -7.3466 393.755
lfingers 7.12502
lthumb 18.5374 62.8913
rfemur -7.05866 -4.3237 18.0306
rtibia 59.9566
rfoot 10.7 20.1181
rtoes 17.939
lfemur -26.1649 -0.691278 -28.6458
ltibia 39.6166
lfoot -13.2071 -8.45239
ltoes 13.8645
562
root 10.0292 17.226 21.1399 3.73705 0.977818 1.96505
lowerback 5.39464 5.38028 -3.37288
upperback 0.988131 6.97455 0.255835
thorax -2.42089 3.50236 1.59755
lowerneck -9.42522 -6.8457 -17.6989
upperneck 16.698 -8.95703 13.6783
head 8.13984 -4.27179 6.60668
rclavicle 7.79236e-014 -1.31198e-014
rhumerus -28.5906 -22.755 -71.2463
rradius 25.0501
rwrist 5.02507
rhand -7.20726 24.1278
rfingers 7.12502
rthumb 18.6715 -4.99609
lclavicle 7.79236e-014 -1.31198e-014
lhumerus -72.3949 45.3971 25.4714
lradius 20.1299
lwrist -9.66146
lhand -7.2677 392.946
lfingers 7.12502
lthumb 18.6133 62.0757
rfemur -8.0299 -4.79753 17.5727
rtibia 61.9544
rfoot 8.95465 18.7279
rtoes 18.4489
lfemur -25.2675 -0.922287 -28.734
ltibia 39.4923
lfoot -13.6748 -8.56726
ltoes 13.1036
563
root 10.0372 17.223 21.2769 3.51988 1.45146 2.10683
lowerback 5.48818 5.18744 -3.41564
upperback 0.980983 6.71185 0.26069
thorax -2.47102 3.37251 1.63973
lowerneck -9.40935 -6.74452 -17.8298
upperneck 16.8164 -8.77325 13.5162
head 8.14339 -4.20739 6.59731
rclavicle -3.61788e-014 -5.96354e-015
rhumerus -29.4012 -24.0441 -70.6545
rradius 24.0628
rwrist 6.39363
rhand -6.98442 23.7345
rfingers 7.12502
rthumb 18.8858 -5.36871
lclavicle -3.61788e-014 -5.96354e-015
lhumerus -69.8326 45.1852 29.2234
lradius 20.2371
lwrist -8.92637
lhand -7.85647 393.16
lfingers 7.12502
lthumb 18.0469 62.3429
rfemur -8.97059 -5.39389 16.9763
rtibia 63.8232
rfoot 7.45003 16.9624
rtoes 19.3287
lfemur -24.4131 -1.15058 -28.9447
ltibia 39.3858
lfoot -14.0439 -8.75922
ltoes 13.1173
564
root 10.0392 17.2157 21.41 3.29177 1.9303 2.19059
lowerback 5.69629 5.01405 -3.53217
upperback 0.960855 6.46818 0.361929
thorax -2.61833 3.25447 1.80795
lowerneck -10.0835 -6.79842 -17.9094
upperneck 17.5268 -8.69429 13.1108
head 8.47621 -4.19042 6.47806
rclavicle 1.07294e-013 -2.38542e-015
rhumerus -30.0605 -25.3838 -69.8342
rradius 22.8726
rwrist 7.46018
rhand -6.81541 23.3718
rfingers 7.12502
rthumb 19.0483 -5.71542
lclavicle 1.07294e-013 -2.38542e-015
lhumerus -68.4485 45.6335 31.1821
lradius 20.0321
lwrist -10.0658
lhand -7.65392 392.724
lfingers 7.12502
lthumb 18.2418 61.8883
rfemur -9.91622 -5.94529 16.4973
rtibia 65.5822
rfoot 6.0663 15.0072
rtoes 19.0855
lfemur -23.5623 -1.38761 -29.0621
ltibia 39.3164
lfoot -14.4289 -8.92182
ltoes 13.5319
565
root 10.0462 17.2103 21.5471 3.05296 2.40358 2.28435
lowerback 6.04199 4.86261 -3.63082
upperback 0.778427 6.24642 0.44485
thorax -3.00603 3.15238 1.9265
lowerneck -10.1849 -6.75714 -17.9612
upperneck 17.9153 -8.5804 12.8253
head 8.59594 -4.16467 6.40607
rclavicle 2.68359e-015 -1.43125e-014
rhumerus -30.933 -27.0652 -68.587
rradius 21.2504
rwrist 8.74572
rhand -6.73219 23.3603
rfingers 7.12502
rthumb 19.1284 -5.71901
lclavicle 2.68359e-015 -1.43125e-014
lhumerus -67.4686 46.0292 32.4725
lradius 19.6477
lwrist -11.6792
lhand -7.71742 392.68
lfingers 7.12502
lthumb 18.1807 61.8501
rfemur -10.8329 -6.54051 15.9434
rtibia 67.2313
rfoot 4.43475 13.2285
rtoes 16.0779
lfemur -22.6663 -1.63203 -29.2239
ltibia 39.2677
lfoot -14.8561 -8.99876
ltoes 13.8762
566
root 10.0537 17.2089 21.682 2.8361 2.835 2.20425
lowerback 6.20255 4.72735 -3.52302
upperback 0.715934 6.06959 0.540546
thorax -3.14823 3.06626 1.96605
lowerneck -9.80084 -6.5971 -18.0476
upperneck 17.7327 -8.38816 12.7998
head 8.43385 -4.09292 6.43976
rclavicle -4.33351e-014 3.57812e-015
rhumerus -31.875 -29.4143 -67.0687
rradius 19.7802
rwrist 10.4336
rhand -6.77276 23.5395
rfingers 7.12502
rthumb 19.0894 -5.54374
lclavicle -4.33351e-014 3.57812e-015
lhumerus -66.2572 46.3803 33.8511
lradius 19.2741
lwrist -13.9288
lhand -6.68614 391.462
lfingers 7.12502
lthumb 19.1727 60.5373
rfemur -11.8261 -7.00198 15.6317
rtibia 68.7758
rfoot 2.59058 11.308
rtoes 12.8534
lfemur -21.8745 -1.93162 -29.1964
ltibia 39.2107
lfoot -15.2356 -8.95701
ltoes 13.6693
